# xmcd
# 
# Track frame offsets:
#   150
#   17870
#   32145
#   50444
#   66376
#   81725
#   102032
#   122423
#   140509
#   157962
#   176381
#   193959
#   209030
#   226204
# 
# Disc length: 3270 seconds
# 
# Revision: 0
# Processed by: cddbd v1.5.1PL2 Copyright (c) Steve Scherf et al.
# Submitted via: Synapstar 1.0 
# 
DISCID=c70cc40e
DTITLE=Various Artist - StarDisc Vol.110
DYEAR=1900
DGENRE=Country
TTITLE0=Rascal Flatts - I Melt
TTITLE1=Diamond Rio - Wrinkles
TTITLE2=Jimmy Wayne - I Love You This Much
TTITLE3=Jo Dee Messina - I Wish
TTITLE4=Darryl Worley - Tennessee River Run
TTITLE5=Montgomery Gentry - Hell Yeah
TTITLE6=Blake Shelton - Playboys Of The Southwestern World
TTITLE7=Chris Cagle - Chicks Dig It
TTITLE8=Craig Morgan - Every Friday Afternoon
TTITLE9=Jessica Andrews - Good Times
TTITLE10=Travis Tritt - Lonesome On'ry Mean
TTITLE11=Scotty Emerick w/Toby Keith - I Can't Take You Anywhere
TTITLE12=Rebecca Lynn Howard - What A Shame
TTITLE13=Rodney Atkins - Honesty (write me a list0
EXTD=MediaType: Karaoke CD+G Producer: StarDisc
EXTT0=
EXTT1=
EXTT2=
EXTT3=
EXTT4=
EXTT5=
EXTT6=
EXTT7=
EXTT8=
EXTT9=
EXTT10=
EXTT11=
EXTT12=
EXTT13=
PLAYORDER=
